<?xml version="1.0" encoding="UTF-8" standalone="no"?>
<!DOCTYPE svg PUBLIC "-//W3C//DTD SVG 1.1//EN"
 "http://www.w3.org/Graphics/SVG/1.1/DTD/svg11.dtd">
<!-- Generated by graphviz version 2.30.1 (20180828.1746)
 -->
<!-- Title: SeedFarmer Cross Account Deployments Pages: 1 -->
<svg width="1925pt" height="1620pt"
 viewBox="0.00 0.00 1925.00 1620.00" xmlns="http://www.w3.org/2000/svg" xmlns:xlink="http://www.w3.org/1999/xlink">
<g id="graph0" class="graph" transform="scale(1 1) rotate(0) translate(144 1476)">
<title>SeedFarmer Cross Account Deployments</title>
<polygon fill="white" stroke="white" points="-144,145 -144,-1476 1782,-1476 1782,145 -144,145"/>
<text text-anchor="middle" x="818.5" y="-9" font-family="Sans-Serif" font-size="15.00" fill="#2d3436">SeedFarmer Cross Account Deployments</text>
<g id="clust1" class="cluster"><title>cluster_Toolchain Account</title>
<path fill="#e5f5fd" stroke="#aeb6be" d="M20,-659C20,-659 274,-659 274,-659 280,-659 286,-665 286,-671 286,-671 286,-1133 286,-1133 286,-1139 280,-1145 274,-1145 274,-1145 20,-1145 20,-1145 14,-1145 8,-1139 8,-1133 8,-1133 8,-671 8,-671 8,-665 14,-659 20,-659"/>
<text text-anchor="middle" x="70.5" y="-1131.4" font-family="Sans-Serif" font-size="12.00" fill="#2d3436">Toolchain Account</text>
</g>
<g id="clust2" class="cluster"><title>cluster_us&#45;east&#45;1</title>
<path fill="#ebf3e7" stroke="#aeb6be" d="M28,-667C28,-667 266,-667 266,-667 272,-667 278,-673 278,-679 278,-679 278,-1104 278,-1104 278,-1110 272,-1116 266,-1116 266,-1116 28,-1116 28,-1116 22,-1116 16,-1110 16,-1104 16,-1104 16,-679 16,-679 16,-673 22,-667 28,-667"/>
<text text-anchor="middle" x="52" y="-1102.4" font-family="Sans-Serif" font-size="12.00" fill="#2d3436">us&#45;east&#45;1</text>
</g>
<g id="clust3" class="cluster"><title>cluster_Deployment Accounts</title>
<path fill="#e5f5fd" stroke="#aeb6be" d="M306,-33C306,-33 1617,-33 1617,-33 1623,-33 1629,-39 1629,-45 1629,-45 1629,-888 1629,-888 1629,-894 1623,-900 1617,-900 1617,-900 306,-900 306,-900 300,-900 294,-894 294,-888 294,-888 294,-45 294,-45 294,-39 300,-33 306,-33"/>
<text text-anchor="middle" x="368" y="-886.4" font-family="Sans-Serif" font-size="12.00" fill="#2d3436">Deployment Accounts</text>
</g>
<g id="clust4" class="cluster"><title>cluster_Account A</title>
<path fill="#ebf3e7" stroke="#aeb6be" d="M314,-41C314,-41 944,-41 944,-41 950,-41 956,-47 956,-53 956,-53 956,-859 956,-859 956,-865 950,-871 944,-871 944,-871 314,-871 314,-871 308,-871 302,-865 302,-859 302,-859 302,-53 302,-53 302,-47 308,-41 314,-41"/>
<text text-anchor="middle" x="340.5" y="-857.4" font-family="Sans-Serif" font-size="12.00" fill="#2d3436">Account A</text>
</g>
<g id="clust5" class="cluster"><title>cluster_us&#45;east&#45;1</title>
<path fill="#ece8f6" stroke="#aeb6be" d="M322,-49C322,-49 936,-49 936,-49 942,-49 948,-55 948,-61 948,-61 948,-830 948,-830 948,-836 942,-842 936,-842 936,-842 322,-842 322,-842 316,-842 310,-836 310,-830 310,-830 310,-61 310,-61 310,-55 316,-49 322,-49"/>
<text text-anchor="middle" x="346" y="-828.4" font-family="Sans-Serif" font-size="12.00" fill="#2d3436">us&#45;east&#45;1</text>
</g>
<g id="clust6" class="cluster"><title>cluster_Account B</title>
<path fill="#ebf3e7" stroke="#aeb6be" d="M979,-41C979,-41 1609,-41 1609,-41 1615,-41 1621,-47 1621,-53 1621,-53 1621,-859 1621,-859 1621,-865 1615,-871 1609,-871 1609,-871 979,-871 979,-871 973,-871 967,-865 967,-859 967,-859 967,-53 967,-53 967,-47 973,-41 979,-41"/>
<text text-anchor="middle" x="1005.5" y="-857.4" font-family="Sans-Serif" font-size="12.00" fill="#2d3436">Account B</text>
</g>
<g id="clust7" class="cluster"><title>cluster_us&#45;west&#45;2</title>
<path fill="#ece8f6" stroke="#aeb6be" d="M987,-49C987,-49 1601,-49 1601,-49 1607,-49 1613,-55 1613,-61 1613,-61 1613,-830 1613,-830 1613,-836 1607,-842 1601,-842 1601,-842 987,-842 987,-842 981,-842 975,-836 975,-830 975,-830 975,-61 975,-61 975,-55 981,-49 987,-49"/>
<text text-anchor="middle" x="1012" y="-828.4" font-family="Sans-Serif" font-size="12.00" fill="#2d3436">us&#45;west&#45;2</text>
</g>
<!-- fcdf961565e44d42905577ef0ab4f437 -->
<g id="node1" class="node"><title>fcdf961565e44d42905577ef0ab4f437</title>
<image xlink:href="/workplace/dgraeber/seed-group/seed-farmer/docs_v2/.venv/lib/python3.13/site-packages/resources/aws/general/user.png" width="100.5px" height="100.5px" preserveAspectRatio="xMinYMin meet" x="168.75" y="-1313.25"/>
<text text-anchor="middle" x="219" y="-1198.1" font-family="Sans-Serif" font-size="13.00" fill="#2d3436">End User / CICD Role</text>
</g>
<!-- 9cf8215aad6e40c0b579f34ef93c7671 -->
<g id="node2" class="node"><title>9cf8215aad6e40c0b579f34ef93c7671</title>
<image xlink:href="/workplace/dgraeber/seed-group/seed-farmer/docs_v2/.venv/lib/python3.13/site-packages/resources/aws/security/identity-and-access-management-iam-role.png" width="100.5px" height="100.5px" preserveAspectRatio="xMinYMin meet" x="168.75" y="-1068.25"/>
<text text-anchor="middle" x="219" y="-953.1" font-family="Sans-Serif" font-size="13.00" fill="#2d3436">SeedFarmer Toolchain Role</text>
</g>
<!-- fcdf961565e44d42905577ef0ab4f437&#45;&gt;9cf8215aad6e40c0b579f34ef93c7671 -->
<g id="edge1" class="edge"><title>fcdf961565e44d42905577ef0ab4f437&#45;&gt;9cf8215aad6e40c0b579f34ef93c7671</title>
<path fill="none" stroke="red" d="M219,-1194.43C219,-1194.43 219,-1096.56 219,-1096.56"/>
<polygon fill="red" stroke="red" points="222.5,-1096.56 219,-1086.56 215.5,-1096.56 222.5,-1096.56"/>
<text text-anchor="middle" x="248" y="-1156.6" font-family="Sans-Serif" font-size="13.00" fill="#2d3436">Assumes</text>
</g>
<!-- 386802ff011d42218d7974e821c7904e -->
<g id="node5" class="node"><title>386802ff011d42218d7974e821c7904e</title>
<image xlink:href="/workplace/dgraeber/seed-group/seed-farmer/docs_v2/.venv/lib/python3.13/site-packages/resources/aws/security/identity-and-access-management-iam-role.png" width="100.5px" height="100.5px" preserveAspectRatio="xMinYMin meet" x="673.75" y="-794.25"/>
<text text-anchor="middle" x="724" y="-679.1" font-family="Sans-Serif" font-size="13.00" fill="#2d3436">SeedFarmer Deployment Role</text>
</g>
<!-- 9cf8215aad6e40c0b579f34ef93c7671&#45;&gt;386802ff011d42218d7974e821c7904e -->
<g id="edge2" class="edge"><title>9cf8215aad6e40c0b579f34ef93c7671&#45;&gt;386802ff011d42218d7974e821c7904e</title>
<path fill="none" stroke="red" stroke-width="2" d="M269.268,-995C397.001,-995 724,-995 724,-995 724,-995 724,-822.587 724,-822.587"/>
<polygon fill="red" stroke="red" points="727.5,-822.587 724,-812.587 720.5,-822.587 727.5,-822.587"/>
<text text-anchor="middle" x="546" y="-911.6" font-family="Sans-Serif" font-size="13.00" fill="#2d3436">Assumes</text>
</g>
<!-- 40e53df4f6664d77a8ff985f4f7a06bd -->
<g id="node12" class="node"><title>40e53df4f6664d77a8ff985f4f7a06bd</title>
<image xlink:href="/workplace/dgraeber/seed-group/seed-farmer/docs_v2/.venv/lib/python3.13/site-packages/resources/aws/security/identity-and-access-management-iam-role.png" width="100.5px" height="100.5px" preserveAspectRatio="xMinYMin meet" x="1338.75" y="-794.25"/>
<text text-anchor="middle" x="1389" y="-679.1" font-family="Sans-Serif" font-size="13.00" fill="#2d3436">SeedFarmer Deployment Role</text>
</g>
<!-- 9cf8215aad6e40c0b579f34ef93c7671&#45;&gt;40e53df4f6664d77a8ff985f4f7a06bd -->
<g id="edge3" class="edge"><title>9cf8215aad6e40c0b579f34ef93c7671&#45;&gt;40e53df4f6664d77a8ff985f4f7a06bd</title>
<path fill="none" stroke="red" stroke-width="2" d="M269.273,-1040C493.219,-1040 1389,-1040 1389,-1040 1389,-1040 1389,-822.652 1389,-822.652"/>
<polygon fill="red" stroke="red" points="1392.5,-822.652 1389,-812.652 1385.5,-822.652 1392.5,-822.652"/>
<text text-anchor="middle" x="1035" y="-911.6" font-family="Sans-Serif" font-size="13.00" fill="#2d3436">Assumes</text>
</g>
<!-- 8b7468ed9e2146859fda795b014a347e -->
<g id="node3" class="node"><title>8b7468ed9e2146859fda795b014a347e</title>
<image xlink:href="/workplace/dgraeber/seed-group/seed-farmer/docs_v2/.venv/lib/python3.13/site-packages/resources/aws/management/systems-manager-parameter-store.png" width="100.5px" height="100.5px" preserveAspectRatio="xMinYMin meet" x="24.75" y="-794.25"/>
<text text-anchor="middle" x="75" y="-679.1" font-family="Sans-Serif" font-size="13.00" fill="#2d3436">SSM Parameters</text>
</g>
<!-- 9cf8215aad6e40c0b579f34ef93c7671&#45;&gt;8b7468ed9e2146859fda795b014a347e -->
<g id="edge6" class="edge"><title>9cf8215aad6e40c0b579f34ef93c7671&#45;&gt;8b7468ed9e2146859fda795b014a347e</title>
<path fill="none" stroke="purple" stroke-dasharray="5,2" d="M168.636,-1018C127.11,-1018 75,-1018 75,-1018 75,-1018 75,-822.788 75,-822.788"/>
<polygon fill="purple" stroke="purple" points="78.5001,-822.788 75,-812.788 71.5001,-822.788 78.5001,-822.788"/>
<text text-anchor="middle" x="123" y="-911.6" font-family="Sans-Serif" font-size="13.00" fill="#2d3436">Access</text>
</g>
<!-- 561df55639f8434fade739f92396e3a1 -->
<g id="node4" class="node"><title>561df55639f8434fade739f92396e3a1</title>
<image xlink:href="/workplace/dgraeber/seed-group/seed-farmer/docs_v2/.venv/lib/python3.13/site-packages/resources/aws/security/secrets-manager.png" width="100.5px" height="100.5px" preserveAspectRatio="xMinYMin meet" x="168.75" y="-794.25"/>
<text text-anchor="middle" x="219" y="-679.1" font-family="Sans-Serif" font-size="13.00" fill="#2d3436">Secrets Manager</text>
</g>
<!-- 9cf8215aad6e40c0b579f34ef93c7671&#45;&gt;561df55639f8434fade739f92396e3a1 -->
<g id="edge7" class="edge"><title>9cf8215aad6e40c0b579f34ef93c7671&#45;&gt;561df55639f8434fade739f92396e3a1</title>
<path fill="none" stroke="purple" stroke-dasharray="5,2" d="M219,-949.212C219,-949.212 219,-822.816 219,-822.816"/>
<polygon fill="purple" stroke="purple" points="222.5,-822.816 219,-812.816 215.5,-822.816 222.5,-822.816"/>
<text text-anchor="middle" x="241" y="-911.6" font-family="Sans-Serif" font-size="13.00" fill="#2d3436">Access</text>
</g>
<!-- a6919d21bcb04cd98768bda6032f468f -->
<g id="node6" class="node"><title>a6919d21bcb04cd98768bda6032f468f</title>
<image xlink:href="/workplace/dgraeber/seed-group/seed-farmer/docs_v2/.venv/lib/python3.13/site-packages/resources/aws/devtools/codebuild.png" width="100.5px" height="100.5px" preserveAspectRatio="xMinYMin meet" x="578.75" y="-588.25"/>
<text text-anchor="middle" x="629" y="-473.1" font-family="Sans-Serif" font-size="13.00" fill="#2d3436">CodeBuild Project</text>
</g>
<!-- 386802ff011d42218d7974e821c7904e&#45;&gt;a6919d21bcb04cd98768bda6032f468f -->
<g id="edge8" class="edge"><title>386802ff011d42218d7974e821c7904e&#45;&gt;a6919d21bcb04cd98768bda6032f468f</title>
<path fill="none" stroke="purple" stroke-dasharray="5,2" d="M673.693,-744C649.742,-744 626.25,-744 626.25,-744 626.25,-744 626.25,-616.595 626.25,-616.595"/>
<polygon fill="purple" stroke="purple" points="629.75,-616.595 626.25,-606.595 622.75,-616.595 629.75,-616.595"/>
<text text-anchor="middle" x="721.5" y="-637.6" font-family="Sans-Serif" font-size="13.00" fill="#2d3436">Starts</text>
</g>
<!-- a2967ed0835a4f64a98611da7d78fce9 -->
<g id="node8" class="node"><title>a2967ed0835a4f64a98611da7d78fce9</title>
<image xlink:href="/workplace/dgraeber/seed-group/seed-farmer/docs_v2/.venv/lib/python3.13/site-packages/resources/aws/storage/simple-storage-service-s3.png" width="100.5px" height="100.5px" preserveAspectRatio="xMinYMin meet" x="578.75" y="-382.25"/>
<text text-anchor="middle" x="629" y="-267.1" font-family="Sans-Serif" font-size="13.00" fill="#2d3436">S3 Bucket</text>
</g>
<!-- 386802ff011d42218d7974e821c7904e&#45;&gt;a2967ed0835a4f64a98611da7d78fce9 -->
<g id="edge9" class="edge"><title>386802ff011d42218d7974e821c7904e&#45;&gt;a2967ed0835a4f64a98611da7d78fce9</title>
<path fill="none" stroke="purple" stroke-dasharray="5,2" d="M710.917,-675.174C710.917,-563.212 710.917,-354 710.917,-354 710.917,-354 689.48,-354 689.48,-354"/>
<polygon fill="purple" stroke="purple" points="689.48,-350.5 679.48,-354 689.48,-357.5 689.48,-350.5"/>
<text text-anchor="middle" x="788" y="-534.6" font-family="Sans-Serif" font-size="13.00" fill="#2d3436">Access</text>
</g>
<!-- 87ecd9ace95a4092863292e8d6f5d50a -->
<g id="node9" class="node"><title>87ecd9ace95a4092863292e8d6f5d50a</title>
<image xlink:href="/workplace/dgraeber/seed-group/seed-farmer/docs_v2/.venv/lib/python3.13/site-packages/resources/aws/management/systems-manager-parameter-store.png" width="100.5px" height="100.5px" preserveAspectRatio="xMinYMin meet" x="780.75" y="-382.25"/>
<text text-anchor="middle" x="831" y="-267.1" font-family="Sans-Serif" font-size="13.00" fill="#2d3436">SSM Parameters</text>
</g>
<!-- 386802ff011d42218d7974e821c7904e&#45;&gt;87ecd9ace95a4092863292e8d6f5d50a -->
<g id="edge10" class="edge"><title>386802ff011d42218d7974e821c7904e&#45;&gt;87ecd9ace95a4092863292e8d6f5d50a</title>
<path fill="none" stroke="purple" stroke-dasharray="5,2" d="M742.583,-675.073C742.583,-552.415 742.583,-309 742.583,-309 742.583,-309 770.593,-309 770.593,-309"/>
<polygon fill="purple" stroke="purple" points="770.593,-312.5 780.593,-309 770.593,-305.5 770.593,-312.5"/>
<text text-anchor="middle" x="918" y="-534.6" font-family="Sans-Serif" font-size="13.00" fill="#2d3436">Access</text>
</g>
<!-- a6919d21bcb04cd98768bda6032f468f&#45;&gt;87ecd9ace95a4092863292e8d6f5d50a -->
<g id="edge11" class="edge"><title>a6919d21bcb04cd98768bda6032f468f&#45;&gt;87ecd9ace95a4092863292e8d6f5d50a</title>
<path fill="none" stroke="darkgreen" stroke-dasharray="5,2" d="M679.452,-572C739.283,-572 831,-572 831,-572 831,-572 831,-410.774 831,-410.774"/>
<polygon fill="darkgreen" stroke="darkgreen" points="834.5,-410.774 831,-400.774 827.5,-410.774 834.5,-410.774"/>
<text text-anchor="middle" x="743" y="-431.6" font-family="Sans-Serif" font-size="13.00" fill="#2d3436">Access</text>
</g>
<!-- 2e0aa66c46d24af8ae5f8136da9b7638 -->
<g id="node10" class="node"><title>2e0aa66c46d24af8ae5f8136da9b7638</title>
<image xlink:href="/workplace/dgraeber/seed-group/seed-farmer/docs_v2/.venv/lib/python3.13/site-packages/resources/aws/security/secrets-manager.png" width="100.5px" height="100.5px" preserveAspectRatio="xMinYMin meet" x="376.75" y="-382.25"/>
<text text-anchor="middle" x="427" y="-267.1" font-family="Sans-Serif" font-size="13.00" fill="#2d3436">Secrets Manager</text>
</g>
<!-- a6919d21bcb04cd98768bda6032f468f&#45;&gt;2e0aa66c46d24af8ae5f8136da9b7638 -->
<g id="edge12" class="edge"><title>a6919d21bcb04cd98768bda6032f468f&#45;&gt;2e0aa66c46d24af8ae5f8136da9b7638</title>
<path fill="none" stroke="darkgreen" stroke-dasharray="5,2" d="M578.482,-515C530.319,-515 465.083,-515 465.083,-515 465.083,-515 465.083,-410.663 465.083,-410.663"/>
<polygon fill="darkgreen" stroke="darkgreen" points="468.583,-410.663 465.083,-400.663 461.583,-410.663 468.583,-410.663"/>
<text text-anchor="middle" x="559" y="-431.6" font-family="Sans-Serif" font-size="13.00" fill="#2d3436">Access</text>
</g>
<!-- a6919d21bcb04cd98768bda6032f468f&#45;&gt;a2967ed0835a4f64a98611da7d78fce9 -->
<g id="edge13" class="edge"><title>a6919d21bcb04cd98768bda6032f468f&#45;&gt;a2967ed0835a4f64a98611da7d78fce9</title>
<path fill="none" stroke="darkgreen" stroke-dasharray="5,2" d="M629,-469.405C629,-469.405 629,-410.646 629,-410.646"/>
<polygon fill="darkgreen" stroke="darkgreen" points="632.5,-410.646 629,-400.646 625.5,-410.646 632.5,-410.646"/>
<text text-anchor="middle" x="651" y="-431.6" font-family="Sans-Serif" font-size="13.00" fill="#2d3436">Access</text>
</g>
<!-- 04109b48d0d14907a0482f6d7a6f53a8 -->
<g id="node7" class="node"><title>04109b48d0d14907a0482f6d7a6f53a8</title>
<image xlink:href="/workplace/dgraeber/seed-group/seed-farmer/docs_v2/.venv/lib/python3.13/site-packages/resources/aws/security/identity-and-access-management-iam-role.png" width="100.5px" height="100.5px" preserveAspectRatio="xMinYMin meet" x="440.75" y="-794.25"/>
<text text-anchor="middle" x="491" y="-679.1" font-family="Sans-Serif" font-size="13.00" fill="#2d3436">Module Role</text>
</g>
<!-- 04109b48d0d14907a0482f6d7a6f53a8&#45;&gt;a6919d21bcb04cd98768bda6032f468f -->
<g id="edge4" class="edge"><title>04109b48d0d14907a0482f6d7a6f53a8&#45;&gt;a6919d21bcb04cd98768bda6032f468f</title>
<path fill="none" stroke="red" stroke-width="2" d="M519.917,-675.485C519.917,-623.171 519.917,-560 519.917,-560 519.917,-560 568.609,-560 568.609,-560"/>
<polygon fill="red" stroke="red" points="568.609,-563.5 578.609,-560 568.609,-556.5 568.609,-563.5"/>
<text text-anchor="middle" x="588" y="-637.6" font-family="Sans-Serif" font-size="13.00" fill="#2d3436">Attached</text>
</g>
<!-- 04109b48d0d14907a0482f6d7a6f53a8&#45;&gt;a2967ed0835a4f64a98611da7d78fce9 -->
<g id="edge14" class="edge"><title>04109b48d0d14907a0482f6d7a6f53a8&#45;&gt;a2967ed0835a4f64a98611da7d78fce9</title>
<path fill="none" stroke="darkblue" stroke-dasharray="5,2" d="M498.583,-675.04C498.583,-557.754 498.583,-332 498.583,-332 498.583,-332 568.578,-332 568.578,-332"/>
<polygon fill="darkblue" stroke="darkblue" points="568.578,-335.5 578.578,-332 568.577,-328.5 568.578,-335.5"/>
<text text-anchor="middle" x="513" y="-534.6" font-family="Sans-Serif" font-size="13.00" fill="#2d3436">Access</text>
</g>
<!-- 04109b48d0d14907a0482f6d7a6f53a8&#45;&gt;2e0aa66c46d24af8ae5f8136da9b7638 -->
<g id="edge15" class="edge"><title>04109b48d0d14907a0482f6d7a6f53a8&#45;&gt;2e0aa66c46d24af8ae5f8136da9b7638</title>
<path fill="none" stroke="darkblue" stroke-dasharray="5,2" d="M452.917,-675.04C452.917,-675.04 452.917,-410.841 452.917,-410.841"/>
<polygon fill="darkblue" stroke="darkblue" points="456.417,-410.841 452.917,-400.841 449.417,-410.841 456.417,-410.841"/>
<text text-anchor="middle" x="383" y="-534.6" font-family="Sans-Serif" font-size="13.00" fill="#2d3436">Access</text>
</g>
<!-- cce52d96d0fd4f36bf2e047f56f758b6 -->
<g id="node11" class="node"><title>cce52d96d0fd4f36bf2e047f56f758b6</title>
<image xlink:href="/workplace/dgraeber/seed-group/seed-farmer/docs_v2/.venv/lib/python3.13/site-packages/resources/aws/security/key-management-service.png" width="100.5px" height="100.5px" preserveAspectRatio="xMinYMin meet" x="578.75" y="-176.25"/>
<text text-anchor="middle" x="629" y="-61.1" font-family="Sans-Serif" font-size="13.00" fill="#2d3436">KMS</text>
</g>
<!-- a2967ed0835a4f64a98611da7d78fce9&#45;&gt;cce52d96d0fd4f36bf2e047f56f758b6 -->
<g id="edge16" class="edge"><title>a2967ed0835a4f64a98611da7d78fce9&#45;&gt;cce52d96d0fd4f36bf2e047f56f758b6</title>
<path fill="none" stroke="black" stroke-dasharray="5,2" d="M629,-263.405C629,-263.405 629,-204.646 629,-204.646"/>
<polygon fill="black" stroke="black" points="632.5,-204.646 629,-194.646 625.5,-204.646 632.5,-204.646"/>
<text text-anchor="middle" x="644.5" y="-225.6" font-family="Sans-Serif" font-size="13.00" fill="#2d3436">Uses</text>
</g>
<!-- 5a1566b62fcf451d87df68db97d017df -->
<g id="node13" class="node"><title>5a1566b62fcf451d87df68db97d017df</title>
<image xlink:href="/workplace/dgraeber/seed-group/seed-farmer/docs_v2/.venv/lib/python3.13/site-packages/resources/aws/devtools/codebuild.png" width="100.5px" height="100.5px" preserveAspectRatio="xMinYMin meet" x="1243.75" y="-588.25"/>
<text text-anchor="middle" x="1294" y="-473.1" font-family="Sans-Serif" font-size="13.00" fill="#2d3436">CodeBuild Project</text>
</g>
<!-- 40e53df4f6664d77a8ff985f4f7a06bd&#45;&gt;5a1566b62fcf451d87df68db97d017df -->
<g id="edge17" class="edge"><title>40e53df4f6664d77a8ff985f4f7a06bd&#45;&gt;5a1566b62fcf451d87df68db97d017df</title>
<path fill="none" stroke="purple" stroke-dasharray="5,2" d="M1338.69,-744C1314.74,-744 1291.25,-744 1291.25,-744 1291.25,-744 1291.25,-616.595 1291.25,-616.595"/>
<polygon fill="purple" stroke="purple" points="1294.75,-616.595 1291.25,-606.595 1287.75,-616.595 1294.75,-616.595"/>
<text text-anchor="middle" x="1386.5" y="-637.6" font-family="Sans-Serif" font-size="13.00" fill="#2d3436">Starts</text>
</g>
<!-- 341636083aa949e88eeb85c856c7a339 -->
<g id="node15" class="node"><title>341636083aa949e88eeb85c856c7a339</title>
<image xlink:href="/workplace/dgraeber/seed-group/seed-farmer/docs_v2/.venv/lib/python3.13/site-packages/resources/aws/storage/simple-storage-service-s3.png" width="100.5px" height="100.5px" preserveAspectRatio="xMinYMin meet" x="1243.75" y="-382.25"/>
<text text-anchor="middle" x="1294" y="-267.1" font-family="Sans-Serif" font-size="13.00" fill="#2d3436">S3 Bucket</text>
</g>
<!-- 40e53df4f6664d77a8ff985f4f7a06bd&#45;&gt;341636083aa949e88eeb85c856c7a339 -->
<g id="edge18" class="edge"><title>40e53df4f6664d77a8ff985f4f7a06bd&#45;&gt;341636083aa949e88eeb85c856c7a339</title>
<path fill="none" stroke="purple" stroke-dasharray="5,2" d="M1375.92,-675.174C1375.92,-563.212 1375.92,-354 1375.92,-354 1375.92,-354 1354.48,-354 1354.48,-354"/>
<polygon fill="purple" stroke="purple" points="1354.48,-350.5 1344.48,-354 1354.48,-357.5 1354.48,-350.5"/>
<text text-anchor="middle" x="1453" y="-534.6" font-family="Sans-Serif" font-size="13.00" fill="#2d3436">Access</text>
</g>
<!-- 1c50470b36f147809d345ae515aa9ed5 -->
<g id="node16" class="node"><title>1c50470b36f147809d345ae515aa9ed5</title>
<image xlink:href="/workplace/dgraeber/seed-group/seed-farmer/docs_v2/.venv/lib/python3.13/site-packages/resources/aws/management/systems-manager-parameter-store.png" width="100.5px" height="100.5px" preserveAspectRatio="xMinYMin meet" x="1445.75" y="-382.25"/>
<text text-anchor="middle" x="1496" y="-267.1" font-family="Sans-Serif" font-size="13.00" fill="#2d3436">SSM Parameters</text>
</g>
<!-- 40e53df4f6664d77a8ff985f4f7a06bd&#45;&gt;1c50470b36f147809d345ae515aa9ed5 -->
<g id="edge19" class="edge"><title>40e53df4f6664d77a8ff985f4f7a06bd&#45;&gt;1c50470b36f147809d345ae515aa9ed5</title>
<path fill="none" stroke="purple" stroke-dasharray="5,2" d="M1407.58,-675.073C1407.58,-552.415 1407.58,-309 1407.58,-309 1407.58,-309 1435.59,-309 1435.59,-309"/>
<polygon fill="purple" stroke="purple" points="1435.59,-312.5 1445.59,-309 1435.59,-305.5 1435.59,-312.5"/>
<text text-anchor="middle" x="1583" y="-534.6" font-family="Sans-Serif" font-size="13.00" fill="#2d3436">Access</text>
</g>
<!-- 5a1566b62fcf451d87df68db97d017df&#45;&gt;1c50470b36f147809d345ae515aa9ed5 -->
<g id="edge20" class="edge"><title>5a1566b62fcf451d87df68db97d017df&#45;&gt;1c50470b36f147809d345ae515aa9ed5</title>
<path fill="none" stroke="darkgreen" stroke-dasharray="5,2" d="M1344.45,-538C1404.28,-538 1496,-538 1496,-538 1496,-538 1496,-410.595 1496,-410.595"/>
<polygon fill="darkgreen" stroke="darkgreen" points="1499.5,-410.595 1496,-400.595 1492.5,-410.595 1499.5,-410.595"/>
<text text-anchor="middle" x="1408" y="-431.6" font-family="Sans-Serif" font-size="13.00" fill="#2d3436">Access</text>
</g>
<!-- e82dcb27b6dd4b2e90fc237a9d7e365a -->
<g id="node17" class="node"><title>e82dcb27b6dd4b2e90fc237a9d7e365a</title>
<image xlink:href="/workplace/dgraeber/seed-group/seed-farmer/docs_v2/.venv/lib/python3.13/site-packages/resources/aws/security/secrets-manager.png" width="100.5px" height="100.5px" preserveAspectRatio="xMinYMin meet" x="1041.75" y="-382.25"/>
<text text-anchor="middle" x="1092" y="-267.1" font-family="Sans-Serif" font-size="13.00" fill="#2d3436">Secrets Manager</text>
</g>
<!-- 5a1566b62fcf451d87df68db97d017df&#45;&gt;e82dcb27b6dd4b2e90fc237a9d7e365a -->
<g id="edge21" class="edge"><title>5a1566b62fcf451d87df68db97d017df&#45;&gt;e82dcb27b6dd4b2e90fc237a9d7e365a</title>
<path fill="none" stroke="darkgreen" stroke-dasharray="5,2" d="M1243.48,-503C1195.32,-503 1130.08,-503 1130.08,-503 1130.08,-503 1130.08,-410.567 1130.08,-410.567"/>
<polygon fill="darkgreen" stroke="darkgreen" points="1133.58,-410.567 1130.08,-400.567 1126.58,-410.567 1133.58,-410.567"/>
<text text-anchor="middle" x="1224" y="-431.6" font-family="Sans-Serif" font-size="13.00" fill="#2d3436">Access</text>
</g>
<!-- 5a1566b62fcf451d87df68db97d017df&#45;&gt;341636083aa949e88eeb85c856c7a339 -->
<g id="edge22" class="edge"><title>5a1566b62fcf451d87df68db97d017df&#45;&gt;341636083aa949e88eeb85c856c7a339</title>
<path fill="none" stroke="darkgreen" stroke-dasharray="5,2" d="M1294,-469.405C1294,-469.405 1294,-410.646 1294,-410.646"/>
<polygon fill="darkgreen" stroke="darkgreen" points="1297.5,-410.646 1294,-400.646 1290.5,-410.646 1297.5,-410.646"/>
<text text-anchor="middle" x="1316" y="-431.6" font-family="Sans-Serif" font-size="13.00" fill="#2d3436">Access</text>
</g>
<!-- fcaa20bbc7ea4816b68a5cfaf0577d81 -->
<g id="node14" class="node"><title>fcaa20bbc7ea4816b68a5cfaf0577d81</title>
<image xlink:href="/workplace/dgraeber/seed-group/seed-farmer/docs_v2/.venv/lib/python3.13/site-packages/resources/aws/security/identity-and-access-management-iam-role.png" width="100.5px" height="100.5px" preserveAspectRatio="xMinYMin meet" x="1105.75" y="-794.25"/>
<text text-anchor="middle" x="1156" y="-679.1" font-family="Sans-Serif" font-size="13.00" fill="#2d3436">Module Role</text>
</g>
<!-- fcaa20bbc7ea4816b68a5cfaf0577d81&#45;&gt;5a1566b62fcf451d87df68db97d017df -->
<g id="edge5" class="edge"><title>fcaa20bbc7ea4816b68a5cfaf0577d81&#45;&gt;5a1566b62fcf451d87df68db97d017df</title>
<path fill="none" stroke="red" stroke-width="2" d="M1184.92,-675.405C1184.92,-615.479 1184.92,-538 1184.92,-538 1184.92,-538 1233.61,-538 1233.61,-538"/>
<polygon fill="red" stroke="red" points="1233.61,-541.5 1243.61,-538 1233.61,-534.5 1233.61,-541.5"/>
<text text-anchor="middle" x="1253" y="-637.6" font-family="Sans-Serif" font-size="13.00" fill="#2d3436">Attached</text>
</g>
<!-- fcaa20bbc7ea4816b68a5cfaf0577d81&#45;&gt;341636083aa949e88eeb85c856c7a339 -->
<g id="edge23" class="edge"><title>fcaa20bbc7ea4816b68a5cfaf0577d81&#45;&gt;341636083aa949e88eeb85c856c7a339</title>
<path fill="none" stroke="darkblue" stroke-width="2" d="M1163.58,-675.04C1163.58,-557.754 1163.58,-332 1163.58,-332 1163.58,-332 1233.58,-332 1233.58,-332"/>
<polygon fill="darkblue" stroke="darkblue" points="1233.58,-335.5 1243.58,-332 1233.58,-328.5 1233.58,-335.5"/>
<text text-anchor="middle" x="1178" y="-534.6" font-family="Sans-Serif" font-size="13.00" fill="#2d3436">Access</text>
</g>
<!-- fcaa20bbc7ea4816b68a5cfaf0577d81&#45;&gt;e82dcb27b6dd4b2e90fc237a9d7e365a -->
<g id="edge24" class="edge"><title>fcaa20bbc7ea4816b68a5cfaf0577d81&#45;&gt;e82dcb27b6dd4b2e90fc237a9d7e365a</title>
<path fill="none" stroke="darkblue" stroke-width="2" d="M1117.92,-675.04C1117.92,-675.04 1117.92,-410.841 1117.92,-410.841"/>
<polygon fill="darkblue" stroke="darkblue" points="1121.42,-410.841 1117.92,-400.841 1114.42,-410.841 1121.42,-410.841"/>
<text text-anchor="middle" x="1048" y="-534.6" font-family="Sans-Serif" font-size="13.00" fill="#2d3436">Access</text>
</g>
<!-- 6a48d1811b8c4bebb8641dcf45c76fdb -->
<g id="node18" class="node"><title>6a48d1811b8c4bebb8641dcf45c76fdb</title>
<image xlink:href="/workplace/dgraeber/seed-group/seed-farmer/docs_v2/.venv/lib/python3.13/site-packages/resources/aws/security/key-management-service.png" width="100.5px" height="100.5px" preserveAspectRatio="xMinYMin meet" x="1243.75" y="-176.25"/>
<text text-anchor="middle" x="1294" y="-61.1" font-family="Sans-Serif" font-size="13.00" fill="#2d3436">KMS</text>
</g>
<!-- 341636083aa949e88eeb85c856c7a339&#45;&gt;6a48d1811b8c4bebb8641dcf45c76fdb -->
<g id="edge25" class="edge"><title>341636083aa949e88eeb85c856c7a339&#45;&gt;6a48d1811b8c4bebb8641dcf45c76fdb</title>
<path fill="none" stroke="black" stroke-dasharray="5,2" d="M1294,-263.405C1294,-263.405 1294,-204.646 1294,-204.646"/>
<polygon fill="black" stroke="black" points="1297.5,-204.646 1294,-194.646 1290.5,-204.646 1297.5,-204.646"/>
<text text-anchor="middle" x="1309.5" y="-225.6" font-family="Sans-Serif" font-size="13.00" fill="#2d3436">Uses</text>
</g>
</g>
</svg>
